; Drill file
; Format: 2.4 (00.0000)
M48
INCH
T01C0.0236
T02C0.0315
T03C0.063
T04C0.1181
T05C0.1575
T06C0.1969
%
G05
G90
T01
X017040Y029940
X018840Y030930
X018840Y031930
X018820Y032620
X018820Y033620
X017040Y032940
X012040Y032940
X012040Y029940
X005040Y028070
X003940Y028070
X003900Y026850
X005000Y026850
T02
X015430Y019550
X014330Y019550
X013030Y019550
X011930Y019550
X011970Y025060
X013070Y025060
X014370Y025060
X015470Y025060
X017420Y026400
X018540Y026400
T03
X014610Y003050
X012280Y002660
X011140Y009480
T04
X006530Y002030
X002980Y026150
X009340Y026300
T05
X018670Y001590
X014500Y026870
T06
X010470Y033170
M30
